<svg width="16" height="5" viewBox="0 0 16 5" fill="none" xmlns="http://www.w3.org/2000/svg">
<mask id="path-1-inside-1_97_470" fill="white">
<path fill-rule="evenodd" clip-rule="evenodd" d="M13.5 1.70746C12.9477 1.70746 12.5 2.15517 12.5 2.70746C12.5 3.25974 12.9477 3.70746 13.5 3.70746C14.0523 3.70746 14.5 3.25974 14.5 2.70746C14.5 2.15517 14.0523 1.70746 13.5 1.70746ZM11.5 2.70746C11.5 1.60289 12.3954 0.707458 13.5 0.707458C14.6046 0.707458 15.5 1.60289 15.5 2.70746C15.5 3.81203 14.6046 4.70746 13.5 4.70746C12.3954 4.70746 11.5 3.81203 11.5 2.70746ZM2.5 1.70746C1.94772 1.70746 1.5 2.15517 1.5 2.70746C1.5 3.25974 1.94772 3.70746 2.5 3.70746C3.05228 3.70746 3.5 3.25974 3.5 2.70746C3.5 2.15517 3.05228 1.70746 2.5 1.70746ZM0.5 2.70746C0.5 1.60289 1.39543 0.707458 2.5 0.707458C3.60457 0.707458 4.5 1.60289 4.5 2.70746C4.5 3.81203 3.60457 4.70746 2.5 4.70746C1.39543 4.70746 0.5 3.81203 0.5 2.70746ZM8 1.70746C7.44772 1.70746 7 2.15517 7 2.70746C7 3.25974 7.44772 3.70746 8 3.70746C8.55228 3.70746 9 3.25974 9 2.70746C9 2.15517 8.55228 1.70746 8 1.70746ZM6 2.70746C6 1.60289 6.89543 0.707458 8 0.707458C9.10457 0.707458 10 1.60289 10 2.70746C10 3.81203 9.10457 4.70746 8 4.70746C6.89543 4.70746 6 3.81203 6 2.70746Z"/>
</mask>
<path d="M13.5 2.70746V0.707458C12.3954 0.707458 11.5 1.60289 11.5 2.70746H13.5ZM13.5 2.70746H11.5C11.5 3.81203 12.3954 4.70746 13.5 4.70746V2.70746ZM13.5 2.70746V4.70746C14.6046 4.70746 15.5 3.81203 15.5 2.70746H13.5ZM13.5 2.70746H15.5C15.5 1.60289 14.6046 0.707458 13.5 0.707458V2.70746ZM13.5 -0.292542C11.8431 -0.292542 10.5 1.0506 10.5 2.70746H12.5C12.5 2.15517 12.9477 1.70746 13.5 1.70746V-0.292542ZM16.5 2.70746C16.5 1.0506 15.1569 -0.292542 13.5 -0.292542V1.70746C14.0523 1.70746 14.5 2.15517 14.5 2.70746H16.5ZM13.5 5.70746C15.1569 5.70746 16.5 4.36431 16.5 2.70746H14.5C14.5 3.25974 14.0523 3.70746 13.5 3.70746V5.70746ZM10.5 2.70746C10.5 4.36431 11.8431 5.70746 13.5 5.70746V3.70746C12.9477 3.70746 12.5 3.25974 12.5 2.70746H10.5ZM2.5 2.70746V0.707458C1.39543 0.707458 0.5 1.60289 0.5 2.70746H2.5ZM2.5 2.70746H0.5C0.5 3.81203 1.39543 4.70746 2.5 4.70746V2.70746ZM2.5 2.70746V4.70746C3.60457 4.70746 4.5 3.81203 4.5 2.70746H2.5ZM2.5 2.70746H4.5C4.5 1.60289 3.60457 0.707458 2.5 0.707458V2.70746ZM2.5 -0.292542C0.843146 -0.292542 -0.5 1.0506 -0.5 2.70746H1.5C1.5 2.15517 1.94772 1.70746 2.5 1.70746V-0.292542ZM5.5 2.70746C5.5 1.0506 4.15685 -0.292542 2.5 -0.292542V1.70746C3.05228 1.70746 3.5 2.15517 3.5 2.70746H5.5ZM2.5 5.70746C4.15685 5.70746 5.5 4.36431 5.5 2.70746H3.5C3.5 3.25974 3.05228 3.70746 2.5 3.70746V5.70746ZM-0.5 2.70746C-0.5 4.36431 0.843146 5.70746 2.5 5.70746V3.70746C1.94772 3.70746 1.5 3.25974 1.5 2.70746H-0.5ZM8 2.70746V0.707458C6.89543 0.707458 6 1.60289 6 2.70746H8ZM8 2.70746H6C6 3.81203 6.89543 4.70746 8 4.70746V2.70746ZM8 2.70746V4.70746C9.10457 4.70746 10 3.81203 10 2.70746H8ZM8 2.70746H10C10 1.60289 9.10457 0.707458 8 0.707458V2.70746ZM8 -0.292542C6.34315 -0.292542 5 1.0506 5 2.70746H7C7 2.15517 7.44772 1.70746 8 1.70746V-0.292542ZM11 2.70746C11 1.0506 9.65685 -0.292542 8 -0.292542V1.70746C8.55228 1.70746 9 2.15517 9 2.70746H11ZM8 5.70746C9.65685 5.70746 11 4.36431 11 2.70746H9C9 3.25974 8.55228 3.70746 8 3.70746V5.70746ZM5 2.70746C5 4.36431 6.34315 5.70746 8 5.70746V3.70746C7.44772 3.70746 7 3.25974 7 2.70746H5Z" fill="#262626" mask="url(#path-1-inside-1_97_470)"/>
</svg>
